<?xml version="1.0" encoding="UTF-8" standalone="no"?>
<svg viewBox="0 0 93 93" version="1.1" xmlns="http://www.w3.org/2000/svg" xmlns:xlink="http://www.w3.org/1999/xlink">
    <!-- Generator: Sketch 3.7.2 (28276) - http://www.bohemiancoding.com/sketch -->
    <title>DC_Desktop_Logo@1x</title>
    <desc>Created with Sketch.</desc>
    <defs></defs>
    <g id="Page-1" stroke="none" stroke-width="1" fill="none" fill-rule="evenodd">
        <path d="M20.1547291,34.4557377 L28.4113223,34.4557377 C30.7162258,34.4557377 32.5845542,36.3242791 32.5845542,38.6291825 L32.5845542,57.6163654 C32.5845542,59.9212689 30.7162258,61.7898102 28.4113223,61.7898102 L23.3583384,61.7898102 L23.3583384,37.0935031 C23.3583384,36.8986415 23.2652734,36.7157059 23.1074675,36.6011315 L20.1547291,34.4557377 Z M46.164169,89.3202351 C32.7408694,89.3202351 20.7704065,83.1036188 12.9725366,73.3929112 C12.8811753,73.2791887 12.9631662,73.1094568 13.1090462,73.1094568 L35.8639785,73.1094568 C36.0750253,73.1094568 36.280748,73.0425863 36.4515446,72.9184286 L45.1485463,66.5998028 C45.3061392,66.4852285 45.3994172,66.3022929 45.3994172,66.1074313 L45.3994172,29.966468 C45.3994172,29.7716065 45.3061392,29.5884579 45.1485463,29.4740965 L36.4515446,23.1552578 C36.280748,23.0313131 36.0750253,22.9644426 35.8639785,22.9644426 L11.2287918,22.9644426 C11.0886619,22.9644426 11.0049672,22.8064237 11.0844026,22.6909975 C18.7549203,11.5389532 31.6055612,4.22642697 46.164169,4.22642697 C60.7227768,4.22642697 73.5732047,11.5389532 81.2439354,22.6909975 C81.3231578,22.8064237 81.2394631,22.9644426 81.0993332,22.9644426 L74.9772727,22.9644426 C74.7745315,22.9644426 74.5903181,23.0817854 74.5044938,23.2655729 L73.1511111,26.1680518 L69.0044996,23.1554708 C68.8337029,23.0313131 68.6279802,22.9644426 68.4167205,22.9644426 L58.6284941,22.9644426 C58.4172344,22.9644426 58.2115117,23.0313131 58.040715,23.1552578 L49.3437134,29.4740965 C49.1861204,29.5884579 49.0928424,29.7716065 49.0928424,29.966468 L49.0928424,66.1074313 C49.0928424,66.3022929 49.1861204,66.4852285 49.3437134,66.5998028 L58.040715,72.9184286 C58.2115117,73.0425863 58.4172344,73.1094568 58.6284941,73.1094568 L79.2190788,73.1094568 C79.3649588,73.1094568 79.4471627,73.2791887 79.3558014,73.3929112 C71.5579315,83.1036188 59.5872556,89.3202351 46.164169,89.3202351 L46.164169,89.3202351 Z M6.30443782,32.5876223 L10.2855767,35.4800919 C10.4478548,35.5978607 10.5436884,35.7861204 10.5436884,35.986519 L10.5436884,69.4539391 C10.5436884,69.6272913 10.3162434,69.6948007 10.2231784,69.5482819 C6.04121499,62.9630259 3.61726494,55.1519523 3.61726494,46.773331 C3.61726494,41.8330048 4.46166504,37.0903086 6.01012233,32.6787706 C6.05271502,32.5578074 6.20072462,32.5122332 6.30443782,32.5876223 L6.30443782,32.5876223 Z M58.7038832,34.4557377 L71.071097,34.4557377 L71.071097,41.2635405 C71.071097,41.441152 71.2152733,41.5851153 71.3928848,41.5851153 L81.7454643,41.5851153 C81.9294647,41.5851153 82.0859929,41.4513743 82.1147429,41.2699294 L84.1634514,28.3358069 C84.1898589,28.1679917 84.4181557,28.1330656 84.492054,28.2861864 C87.1939214,33.876903 88.711073,40.147612 88.711073,46.773331 C88.711073,54.2587835 86.7777908,61.2923276 83.3837922,67.402888 C83.2969031,67.5589902 83.058384,67.4959531 83.058384,67.3170638 L83.058384,55.4941845 C83.058384,55.316573 82.9142078,55.1726097 82.7365962,55.1726097 L71.3928848,55.1726097 C71.2152733,55.1726097 71.071097,55.316573 71.071097,55.4941845 L71.071097,61.7895973 L66.0811503,61.7895973 C63.7762468,61.7895973 61.9077054,59.9212689 61.9077054,57.6163654 L61.9077054,37.0935031 C61.9077054,36.8986415 61.8144274,36.7157059 61.6568345,36.6011315 L58.7038832,34.4557377 Z M46.164169,0.7734375 C20.7589065,0.7734375 0.1640625,21.3682815 0.1640625,46.773331 C0.1640625,72.1785935 20.7589065,92.7734375 46.164169,92.7734375 C71.5692185,92.7734375 92.1642755,72.1785935 92.1642755,46.773331 C92.1642755,21.3682815 71.5692185,0.7734375 46.164169,0.7734375 L46.164169,0.7734375 Z" id="DC_Desktop_Logo" fill="#0078F0"></path>
    </g>
</svg>